<?xml version="1.0" standalone="no"?>
<!DOCTYPE svg PUBLIC "-//W3C//DTD SVG 20010904//EN"
 "http://www.w3.org/TR/2001/REC-SVG-20010904/DTD/svg10.dtd">
<svg version="1.0" xmlns="http://www.w3.org/2000/svg"
 width="2000.000000pt" height="2000.000000pt" viewBox="0 0 2000.000000 2000.000000"
 preserveAspectRatio="xMidYMid meet">
<metadata>
Created by potrace 1.11, written by Peter Selinger 2001-2013
</metadata>
<g transform="translate(0.000000,2000.000000) scale(0.100000,-0.100000)"
fill="#000000" stroke="none">
<path d="M10108 18295 c-1 -1 -64 -6 -138 -9 -74 -4 -146 -8 -160 -10 -14 -3
-65 -7 -114 -11 -49 -3 -92 -7 -95 -9 -3 -2 -42 -7 -86 -11 -44 -4 -82 -8 -85
-10 -3 -1 -30 -6 -61 -9 -31 -4 -65 -8 -75 -10 -11 -2 -39 -7 -64 -11 -25 -4
-52 -9 -61 -10 -9 -2 -34 -6 -55 -9 -22 -4 -46 -8 -54 -11 -8 -2 -33 -6 -55
-10 -99 -14 -505 -114 -670 -165 -38 -11 -77 -23 -85 -25 -15 -3 -132 -42
-160 -52 -8 -3 -19 -7 -25 -8 -51 -13 -459 -172 -563 -221 -41 -19 -76 -34
-78 -34 -3 0 -91 -42 -197 -94 -391 -192 -738 -402 -1097 -665 -80 -58 -152
-113 -161 -121 -9 -8 -45 -37 -80 -65 -53 -41 -233 -192 -275 -230 -143 -129
-427 -407 -519 -509 -341 -373 -711 -873 -928 -1256 -120 -211 -347 -652 -347
-674 0 -2 -15 -37 -34 -78 -19 -40 -55 -127 -80 -193 -26 -66 -51 -129 -56
-140 -12 -26 -89 -250 -133 -390 -42 -129 -117 -401 -132 -475 -2 -8 -17 -76
-34 -151 -16 -75 -35 -165 -41 -200 -19 -121 -29 -179 -35 -208 -2 -13 -7 -49
-11 -80 -3 -31 -8 -58 -9 -61 -2 -3 -6 -34 -10 -70 -3 -36 -8 -77 -10 -91 -3
-14 -7 -57 -10 -95 -3 -38 -7 -85 -10 -104 -27 -207 -27 -1021 0 -1235 2 -16
7 -61 10 -100 9 -100 14 -143 36 -295 11 -74 22 -146 23 -160 3 -21 11 -67 30
-172 3 -13 9 -45 15 -73 6 -27 13 -63 15 -78 16 -94 110 -455 171 -652 33
-110 149 -438 179 -510 7 -16 23 -55 36 -85 13 -30 33 -79 46 -108 13 -29 24
-54 24 -56 0 -15 191 -404 252 -516 90 -162 136 -241 173 -300 23 -36 44 -72
48 -80 11 -25 147 -229 237 -354 47 -65 92 -128 100 -140 27 -39 236 -300 304
-381 155 -182 378 -414 592 -616 137 -129 360 -315 554 -461 63 -48 126 -96
140 -106 56 -43 363 -244 480 -314 322 -195 730 -398 1040 -517 47 -18 99 -39
115 -46 100 -44 619 -211 714 -230 9 -2 61 -15 116 -29 55 -13 111 -27 125
-30 14 -3 48 -10 75 -16 28 -6 64 -13 80 -16 17 -3 62 -12 100 -20 39 -8 86
-17 105 -20 19 -3 73 -11 120 -19 98 -16 145 -23 215 -31 28 -3 61 -7 75 -9
23 -3 125 -14 195 -21 17 -1 82 -6 145 -9 63 -4 135 -9 160 -11 56 -4 595 -4
670 0 116 7 276 18 310 21 19 2 67 7 105 10 39 3 84 8 100 12 17 3 46 7 65 8
37 3 85 10 190 26 36 6 79 13 95 15 17 3 86 16 155 29 69 13 136 26 150 28 14
3 43 10 65 15 22 6 51 13 65 15 165 29 760 211 925 282 17 7 55 22 85 33 143
52 404 170 630 285 122 63 163 84 280 150 28 16 189 112 284 170 179 109 572
393 726 523 281 238 324 278 545 499 171 171 317 330 435 475 25 30 47 57 51
60 4 4 168 218 237 310 121 161 323 477 451 703 142 250 306 592 410 854 99
250 247 698 275 833 3 14 16 68 30 120 25 96 89 401 100 475 4 23 8 52 11 65
3 13 7 42 10 65 3 22 10 67 15 100 5 33 12 83 15 110 3 28 8 64 10 80 11 86
18 162 30 330 27 393 19 876 -21 1245 -3 25 -7 65 -10 90 -7 72 -20 160 -45
315 -24 153 -41 247 -65 355 -3 14 -7 36 -10 50 -3 14 -10 43 -16 65 -5 22
-11 47 -13 56 -34 174 -174 627 -279 902 -100 261 -308 709 -419 902 -39 69
-97 169 -107 185 -175 286 -288 455 -438 655 -126 167 -256 328 -367 451 -223
249 -481 503 -700 689 -38 33 -72 62 -75 65 -12 13 -212 171 -285 226 -44 32
-82 61 -85 65 -8 9 -164 116 -305 209 -400 265 -871 510 -1300 676 -49 19 -99
39 -110 44 -60 27 -432 150 -455 150 -9 0 -20 3 -24 7 -8 8 -23 13 -266 76
-152 39 -327 79 -410 93 -14 2 -35 7 -48 9 -50 12 -278 48 -374 61 -16 2 -45
5 -66 8 -20 3 -62 8 -92 11 -30 3 -71 7 -90 10 -19 2 -75 7 -125 11 -49 3
-115 8 -145 11 -64 5 -727 13 -732 8z"/>
</g>
</svg>
